<svg width="32" height="32" viewBox="0 0 32 32" fill="none" xmlns="http://www.w3.org/2000/svg">
<path d="M0 16C0 7.16344 7.16344 0 16 0C24.8366 0 32 7.16344 32 16C32 24.8366 24.8366 32 16 32C7.16344 32 0 24.8366 0 16Z" fill="url(#paint0_linear_244_3004)"/>
<mask id="mask0_244_3004" style="mask-type:alpha" maskUnits="userSpaceOnUse" x="0" y="0" width="32" height="32">
<path fill-rule="evenodd" clip-rule="evenodd" d="M0 16C0 7.16344 7.16344 0 16 0C24.8366 0 32 7.16344 32 16C32 24.8366 24.8366 32 16 32C7.16344 32 0 24.8366 0 16Z" fill="white"/>
</mask>
<g mask="url(#mask0_244_3004)">
<path fill-rule="evenodd" clip-rule="evenodd" d="M16.0007 7.46655C13.6832 7.46655 13.3923 7.47669 12.4821 7.51811C11.5736 7.55971 10.9535 7.70353 10.4109 7.91456C9.84969 8.13252 9.3736 8.42407 8.89928 8.89857C8.42461 9.37288 8.13305 9.84898 7.91438 10.4101C7.70282 10.9528 7.55882 11.5731 7.51793 12.4812C7.47722 13.3914 7.46655 13.6824 7.46655 16C7.46655 18.3175 7.47686 18.6075 7.51811 19.5177C7.55989 20.4262 7.70371 21.0463 7.91456 21.5888C8.13269 22.1501 8.42425 22.6262 8.89875 23.1005C9.37288 23.5752 9.84898 23.8674 10.4099 24.0854C10.9528 24.2964 11.5731 24.4402 12.4814 24.4818C13.3916 24.5233 13.6823 24.5334 15.9996 24.5334C18.3173 24.5334 18.6073 24.5233 19.5175 24.4818C20.426 24.4402 21.0468 24.2964 21.5897 24.0854C22.1508 23.8674 22.6262 23.5752 23.1003 23.1005C23.575 22.6262 23.8665 22.1501 24.0852 21.589C24.295 21.0463 24.439 20.426 24.4817 19.5179C24.5226 18.6076 24.5332 18.3175 24.5332 16C24.5332 13.6824 24.5226 13.3916 24.4817 12.4814C24.439 11.5729 24.295 10.9528 24.0852 10.4102C23.8665 9.84898 23.575 9.37288 23.1003 8.89857C22.6256 8.4239 22.151 8.13234 21.5892 7.91456C21.0452 7.70353 20.4247 7.55971 19.5163 7.51811C18.606 7.47669 18.3163 7.46655 15.998 7.46655H16.0007ZM15.7161 9.00433H15.7163L16.0007 9.00441C18.2791 9.00441 18.5491 9.01259 19.4489 9.05348C20.2809 9.09152 20.7325 9.23055 21.0333 9.34735C21.4315 9.50202 21.7154 9.68691 22.0139 9.98558C22.3126 10.2842 22.4975 10.5687 22.6525 10.9669C22.7693 11.2674 22.9085 11.7189 22.9463 12.5509C22.9872 13.4505 22.9961 13.7207 22.9961 15.9981C22.9961 18.2754 22.9872 18.5457 22.9463 19.4452C22.9083 20.2772 22.7693 20.7288 22.6525 21.0293C22.4978 21.4275 22.3126 21.711 22.0139 22.0095C21.7152 22.3082 21.4317 22.4931 21.0333 22.6478C20.7328 22.7651 20.2809 22.9038 19.4489 22.9418C18.5493 22.9827 18.2791 22.9916 16.0007 22.9916C13.7221 22.9916 13.452 22.9827 12.5525 22.9418C11.7205 22.9034 11.2689 22.7644 10.9679 22.6476C10.5697 22.4929 10.2852 22.308 9.98657 22.0093C9.6879 21.7107 9.50301 21.4269 9.34798 21.0285C9.23118 20.7281 9.09198 20.2765 9.05411 19.4445C9.01322 18.545 9.00505 18.2747 9.00505 15.996C9.00505 13.7172 9.01322 13.4484 9.05411 12.5488C9.09216 11.7168 9.23118 11.2652 9.34798 10.9644C9.50265 10.5662 9.6879 10.2818 9.98657 9.98309C10.2852 9.68442 10.5697 9.49953 10.9679 9.3445C11.2687 9.22717 11.7205 9.0885 12.5525 9.05028C13.3397 9.01472 13.6447 9.00406 15.2352 9.00228V9.00441C15.3838 9.00418 15.5436 9.00425 15.7161 9.00433ZM19.5318 11.4449C19.5318 10.8794 19.9905 10.4213 20.5558 10.4213V10.4209C21.1212 10.4209 21.5798 10.8796 21.5798 11.4449C21.5798 12.0103 21.1212 12.4689 20.5558 12.4689C19.9905 12.4689 19.5318 12.0103 19.5318 11.4449ZM16.0006 11.6178C13.5805 11.6179 11.6185 13.5801 11.6185 16.0001C11.6185 18.4202 13.5806 20.3815 16.0008 20.3815C18.4209 20.3815 20.3823 18.4202 20.3823 16.0001C20.3823 13.58 18.4207 11.6178 16.0006 11.6178ZM18.8452 16.0001C18.8452 14.429 17.5716 13.1556 16.0007 13.1556C14.4297 13.1556 13.1563 14.429 13.1563 16.0001C13.1563 17.5709 14.4297 18.8445 16.0007 18.8445C17.5716 18.8445 18.8452 17.5709 18.8452 16.0001Z" fill="white"/>
</g>
<defs>
<linearGradient id="paint0_linear_244_3004" x1="10.6667" y1="-4" x2="17.3333" y2="39.1111" gradientUnits="userSpaceOnUse">
<stop stop-color="#4A68D6"/>
<stop offset="0.432292" stop-color="#A435B0"/>
<stop offset="0.651042" stop-color="#E7385E"/>
<stop offset="1" stop-color="#FFDC7F"/>
</linearGradient>
</defs>
</svg>
