<svg width="32" height="32" viewBox="0 0 32 32" fill="none" xmlns="http://www.w3.org/2000/svg">
<path d="M0 16C0 7.16344 7.16344 0 16 0C24.8366 0 32 7.16344 32 16C32 24.8366 24.8366 32 16 32C7.16344 32 0 24.8366 0 16Z" fill="#55ACEE"/>
<path d="M15.5208 13.0049L15.5544 13.5585L14.9948 13.4907C12.9579 13.2308 11.1784 12.3495 9.66756 10.8694L8.92891 10.135L8.73865 10.6773C8.33575 11.8863 8.59316 13.163 9.43253 14.0217C9.8802 14.4963 9.77948 14.5641 9.00725 14.2816C8.73865 14.1912 8.50363 14.1234 8.48124 14.1573C8.4029 14.2364 8.6715 15.2646 8.88414 15.6713C9.17513 16.2363 9.76828 16.7899 10.4174 17.1176L10.9658 17.3774L10.3167 17.3887C9.68994 17.3887 9.66756 17.4 9.73471 17.6373C9.95854 18.3717 10.8427 19.1513 11.8276 19.4903L12.5214 19.7276L11.9171 20.0891C11.0218 20.6089 9.96973 20.9026 8.91772 20.9252C8.41409 20.9365 8 20.9817 8 21.0156C8 21.1286 9.36538 21.7613 10.16 22.0099C12.5438 22.7443 15.3753 22.428 17.5017 21.1738C19.0126 20.2812 20.5235 18.5073 21.2286 16.7899C21.6091 15.8747 21.9896 14.2025 21.9896 13.4003C21.9896 12.8806 22.0232 12.8128 22.6499 12.1913C23.0192 11.8298 23.3662 11.4343 23.4333 11.3213C23.5452 11.1067 23.534 11.1067 22.9633 11.2988C22.012 11.6377 21.8777 11.5925 22.3477 11.0841C22.6947 10.7225 23.1088 10.0672 23.1088 9.87512C23.1088 9.84122 22.9409 9.89771 22.7506 9.9994C22.5492 10.1124 22.1015 10.2819 21.7658 10.3836L21.1614 10.5756L20.613 10.2028C20.3108 9.9994 19.8856 9.77343 19.6617 9.70563C19.0909 9.54745 18.218 9.57005 17.7032 9.75083C16.3042 10.2593 15.4201 11.5699 15.5208 13.0049Z" fill="white"/>
</svg>
