<svg width="32" height="32" viewBox="0 0 32 32" fill="none" xmlns="http://www.w3.org/2000/svg">
<path d="M16 32C24.8366 32 32 24.8366 32 16C32 7.16344 24.8366 0 16 0C7.16344 0 0 7.16344 0 16C0 24.8366 7.16344 32 16 32Z" fill="#25D366"/>
<path fill-rule="evenodd" clip-rule="evenodd" d="M16.5274 24.9017H16.5235C14.9312 24.9012 13.3666 24.5017 11.9769 23.7437L6.93335 25.0667L8.28309 20.1366C7.45051 18.6937 7.0124 17.057 7.01312 15.3802C7.0152 10.1345 11.2832 5.8667 16.5273 5.8667C19.0724 5.8678 21.4612 6.85861 23.2575 8.65697C25.0537 10.4552 26.0425 12.8456 26.0414 15.3877C26.0393 20.6322 21.773 24.8996 16.5274 24.9017ZM12.2106 22.0213L12.4994 22.1926C13.7135 22.9131 15.1052 23.2944 16.5242 23.2949H16.5274C20.8859 23.2949 24.4333 19.7474 24.435 15.3871C24.4359 13.2741 23.6141 11.2874 22.1211 9.79267C20.6281 8.29794 18.6427 7.47437 16.5305 7.47363C12.1686 7.47363 8.6212 11.0207 8.61947 15.3807C8.61885 16.8749 9.03693 18.3301 9.82851 19.5891L10.0165 19.8883L9.21767 22.8064L12.2106 22.0213ZM20.9948 17.436C21.1606 17.5162 21.2726 17.5703 21.3204 17.6501C21.3798 17.7492 21.3798 18.2252 21.1818 18.7806C20.9836 19.3358 20.0339 19.8427 19.5771 19.9109C19.1676 19.9721 18.6493 19.9977 18.0798 19.8167C17.7345 19.7071 17.2918 19.5609 16.7246 19.3159C14.496 18.3536 12.9899 16.1936 12.7052 15.7853C12.6853 15.7567 12.6713 15.7367 12.6636 15.7264L12.6616 15.7238C12.5358 15.5559 11.6929 14.4312 11.6929 13.2672C11.6929 12.1721 12.2308 11.5982 12.4784 11.334C12.4953 11.3159 12.5109 11.2993 12.5249 11.284C12.7428 11.046 13.0004 10.9865 13.1588 10.9865C13.3173 10.9865 13.4759 10.988 13.6144 10.9949C13.6315 10.9958 13.6493 10.9957 13.6677 10.9956C13.8062 10.9947 13.9789 10.9937 14.1493 11.403C14.2149 11.5605 14.3108 11.794 14.4119 12.0403C14.6165 12.5383 14.8425 13.0885 14.8823 13.1681C14.9417 13.2871 14.9813 13.4259 14.9021 13.5846C14.8902 13.6084 14.8792 13.6309 14.8687 13.6523C14.8092 13.7739 14.7654 13.8632 14.6644 13.9812C14.6246 14.0275 14.5836 14.0775 14.5425 14.1275C14.4608 14.2271 14.379 14.3267 14.3078 14.3977C14.1888 14.5162 14.0649 14.6448 14.2035 14.8828C14.3422 15.1208 14.8193 15.8993 15.526 16.5296C16.2857 17.2073 16.946 17.4937 17.2806 17.6388C17.346 17.6672 17.3989 17.6901 17.4378 17.7096C17.6754 17.8286 17.8141 17.8087 17.9528 17.6501C18.0915 17.4914 18.547 16.9559 18.7055 16.7179C18.8639 16.48 19.0225 16.5197 19.2404 16.599C19.4583 16.6784 20.6271 17.2534 20.8648 17.3724C20.9112 17.3956 20.9546 17.4166 20.9948 17.436Z" fill="#FDFDFD"/>
</svg>
